<svg fill="#e8eaed" version="1.1" viewBox="0 0 24 24" xmlns="http://www.w3.org/2000/svg">
 <g transform="matrix(.58738 0 0 .58738 9.1732 .55581)" stroke-width="1.7025">
  <g stroke-width="1.7025">
   <path d="m4.47 19h15.06l-7.53-13.01zm8.53-1h-2v-2h2zm0-4h-2v-4h2z" opacity=".3"/>
   <path d="m1 21h22l-11-19zm3.47-2 7.53-13.01 7.53 13.01zm6.53-3h2v2h-2zm0-6h2v4h-2z"/>
  </g>
 </g>
 <path d="m1.3169 19.269v3h3c0-1.66-1.34-3-3-3zm0-4v2c2.76 0 5 2.24 5 5h2c0-3.87-3.13-7-7-7zm0-4v2c4.97 0 9 4.03 9 9h2c0-6.08-4.93-11-11-11z"/>
</svg>
