<svg enable-background="new 0 0 24 24" fill="#ffffff" version="1.1" viewBox="0 0 90.099 26.212" xmlns="http://www.w3.org/2000/svg">
 <g transform="translate(-19.289 -17.524)">
  <g transform="translate(68.769)">
   <path d="m40.602 28.881-1.0222-1.0236-1.9015 1.9001v-5.125h-1.4618v5.125l-1.9001-1.9001-1.0236 1.0236 3.6546 3.6546z"/>
   <g transform="rotate(180 30.448 35.315)" fill="#fff">
    <path d="m31.663 26.893c-0.55226 5.5e-5 -0.99994 0.44774-1 1v12.15c5.5e-5 0.55226 0.44774 0.99994 1 1h0.89453v2.1789c0 0.28406 0.22961 0.51367 0.51367 0.51367h3.0703c0.28406 0 0.51367-0.22961 0.51367-0.51367v-2.1789h0.89453c0.55226-5.5e-5 0.99994-0.44774 1-1v-12.15c-5.5e-5 -0.55226-0.44774-0.99994-1-1zm1 2h3.8867v10.15h-3.8867z" fill-rule="evenodd" style="paint-order:markers stroke fill"/>
    <path d="m32.663 28.894v10.15h3.8867v-10.15z" opacity=".3" style="paint-order:markers stroke fill"/>
   </g>
   <path d="m21.289 17.524v3.4427h10v-3.4427z" fill="#fff" opacity=".3"/>
   <path d="m19.289 17.524v3.9707c0 1.66 1.34 3 3 3h8c1.66 0 3-1.34 3-3v-3.9707h-2v3.4427h-10v-3.4427zm5 4.6891h4v1h-4z"/>
   <path d="m24.289 22.213v1.0041h4v-1.0041z" fill="#fff" opacity=".3"/>
  </g>
  <g transform="translate(3.3881 -.13086)">
   <path d="m52.742 17.655v3.4427h10v-3.4427z" fill="#fff" opacity=".3"/>
   <path d="m50.742 17.654v3.9707c0 1.66 1.34 3 3 3h1.5508v-1.3672c0-0.49961 0.41445-0.91406 0.91406-0.91406h3.0703c0.49961 0 0.91406 0.41445 0.91406 0.91406v1.3672h1.5508c1.66 0 3-1.34 3-3v-3.9707h-2v3.4434h-10v-3.4434z" fill="#fff"/>
   <path d="m72.055 28.419-1.0222 1.0236-1.9015-1.9001v5.125h-1.4618v-5.125l-1.9001 1.9001-1.0236-1.0236 3.6546-3.6546z"/>
   <g transform="rotate(180 46.174 33.24)" fill="#fff">
    <path d="m31.663 26.893c-0.55226 5.5e-5 -0.99994 0.44774-1 1v12.15c5.5e-5 0.55226 0.44774 0.99994 1 1h0.89453v2.1789c0 0.28406 0.22961 0.51367 0.51367 0.51367h3.0703c0.28406 0 0.51367-0.22961 0.51367-0.51367v-2.1789h0.89453c0.55226-5.5e-5 0.99994-0.44774 1-1v-12.15c-5.5e-5 -0.55226-0.44774-0.99994-1-1zm1 2h3.8867v10.15h-3.8867z" fill-rule="evenodd" style="paint-order:markers stroke fill"/>
    <path d="m32.663 28.894v10.15h3.8867v-10.15z" opacity=".3" style="paint-order:markers stroke fill"/>
   </g>
  </g>
  <g transform="translate(-61.312 -1.138)">
   <path d="m86.031 19.41c-3.0087 0-5.4297 2.423-5.4297 5.4316v4.8828c0 2.8064 2.107 5.1004 4.832 5.3965 0.023329-0.99216 0.75436-1.883 1.7754-1.9766h0.001953c1.1473-0.10078 2.1328 0.81696 2.1328 1.9492v0.0625h8.0527c3.0087-1e-6 5.4316-2.423 5.4316-5.4316v-4.8828c0-3.0087-2.423-5.4316-5.4316-5.4316h-11.365zm-0.79492 7.9863c0.61623 0 1.1115 0.19354 1.4844 0.58203 0.3751 0.38849 0.5625 0.88349 0.5625 1.4863v0.87891c0 0.60507-0.18768 1.1017-0.56055 1.4902-0.37286 0.38626-0.86619 0.57812-1.4824 0.57812-0.61176 0-1.104-0.19186-1.4746-0.57812-0.3684-0.38849-0.55274-0.88517-0.55274-1.4902v-0.87891c0-0.60283 0.18434-1.0978 0.55274-1.4863 0.3684-0.38849 0.85894-0.58203 1.4707-0.58203zm2.8379 0.070313h0.97656v1.9922h0.42578l1.293-1.9922h1.1953l-1.6074 2.2793 1.7383 2.5957h-1.1934l-1.3086-2.0352h-0.54297v2.0352h-0.97656v-4.875zm-2.8379 0.69336c-0.33714 0-0.59649 0.12019-0.77734 0.36133-0.18086 0.24113-0.27148 0.55347-0.27148 0.9375v0.88477c0 0.38849 0.090629 0.7039 0.27148 0.94726 0.18308 0.24113 0.44411 0.36133 0.78125 0.36133 0.33937 0 0.60179-0.12019 0.78711-0.36133 0.18531-0.24337 0.27734-0.55877 0.27734-0.94726v-0.88477c0-0.3818-0.0937-0.69246-0.28125-0.93359-0.18755-0.24337-0.44997-0.36523-0.78711-0.36523z" fill-rule="evenodd" stroke-linejoin="round" stroke-width=".8" style="paint-order:markers stroke fill"/>
   <g transform="translate(-8.6653 .058514)">
    <path d="m96.333 38.695v-3.6011c0-0.16316-0.12819-0.29135-0.29135-0.29135-0.16316 0-0.29135 0.12819-0.29135 0.29135v6.1824l-2.4298-0.5186 2.156 2.2026h3.8167l0.53608-3.1699-2.4706-1.1013h-1.0255z" enable-background="new" opacity=".3" stroke-width="1.7162"/>
    <path d="m100.35 38.747-2.2142-0.9731c-0.07575-0.03496-0.16316-0.05827-0.25639-0.05827h-0.37875v-2.5464c0-0.76916-0.55939-1.4567-1.3227-1.5267-0.86239-0.07575-1.5908 0.606-1.5908 1.4509v4.749l-1.0896-0.23308c-0.11071-0.01748-0.59435-0.0874-1.0081 0.32631l-0.81578 0.8216 2.9834 3.0242c0.2156 0.22142 0.51277 0.34379 0.8216 0.34379h3.8167c0.57104 0 1.0547-0.40789 1.1479-0.9731l0.53608-3.1699c0.0874-0.50112-0.16898-1.0022-0.62931-1.2353zm-1.0547 4.2129h-3.8167l-2.156-2.2026 2.4298 0.5186v-6.1824c0-0.16316 0.12819-0.29135 0.29135-0.29135 0.16315 0 0.29135 0.12819 0.29135 0.29135v3.6011h1.0255l2.4706 1.0955z"/>
   </g>
  </g>
  <path d="m47.822 23.449v16.387" fill="none" stroke="#fff" stroke-linecap="round" stroke-linejoin="round" style="paint-order:markers stroke fill"/>
  <path d="m81.751 23.415v16.387" fill="none" stroke="#fff" stroke-linecap="round" stroke-linejoin="round" style="paint-order:markers stroke fill"/>
 </g>
</svg>
